PathFileType	4	(X/Y/Z)	5_coords_data.trc
DataRate	CameraRate	NumFrames	NumMarkers	Units	OrigDataRate	OrigDataStartFrame	OrigNumFrames
30.0	30.0	5	21	m	30.0	43	63
Frame#	Time	THUMB_TIP	THUMB_IP	THUMB_MCP	THUMB_CMC	INDEX_TIP	INDEX_DIP	INDEX_PIP	INDEX_MCP	MIDDLE_TIP	MIDDLE_DIP	MIDDLE_PIP	MIDDLE_MCP	RING_TIP	RING_DIP	RING_PIP	RING_MCP	PINKY_TIP	PINKY_DIP	PINKY_PIP	PINKY_MCP	WRIST
X1	Y1	Z1	X2	Y2	Z2	X3	Y3	Z3	X4	Y4	Z4	X5	Y5	Z5	X6	Y6	Z6	X7	Y7	Z7	X8	Y8	Z8	X9	Y9	Z9	X10	Y10	Z10	X11	Y11	Z11	X12	Y12	Z12	X13	Y13	Z13	X14	Y14	Z14	X15	Y15	Z15	X16	Y16	Z16	X17	Y17	Z17	X18	Y18	Z18	X19	Y19	Z19	X20	Y20	Z20	X21	Y21	Z21
41	1.3999999999999937	0.5087239108471344	-0.017052832603417167	-0.16419534736318467	0.5059225516798094	-0.020245478283634655	-0.14161306669058135	0.48466683146893563	-0.026482218199128882	-0.11974717010380645	0.4769563479343054	-0.028906694010134015	-0.07587735860769844	0.5881501138155903	-0.003026418117334284	-0.12061091001476877	0.5739442144608261	0.008150832400471653	-0.12173407268531597	0.5515345344346174	0.019544516486123653	-0.1217401619638402	0.5107850262598074	0.012903638674878315	-0.11129926069013782	0.6009145752615193	0.003530562653521252	-0.09937374303709905	0.5857059187016581	0.013226813875631183	-0.1010106541165189	0.559407722451444	0.02576366394091567	-0.10181178733003221	0.5157018852899218	0.022973158104286795	-0.09297092785901617	0.5949163824844468	0.008978858978110682	-0.0792423416331898	0.5816194927149986	0.021141319500088462	-0.078725353712176	0.5602345552961332	0.03390214787881629	-0.07888563371674842	0.5206398812053195	0.02698047095801359	-0.07451836841151535	0.5882333705744149	0.005098373597171579	-0.06000873326854875	0.5760929449531924	0.017043965406133954	-0.058302010658043094	0.55730766088977	0.026403510963058596	-0.057732775535811104	0.5219086761149409	0.020544365006590737	-0.05406320654583077	0.4622830810018609	-0.023011742144276925	-0.051989820119430985
42	1.4333333333333271	0.5101871915793923	-0.0175775746829977	-0.16355619344520317	0.5071635618262983	-0.02094175107330054	-0.14102754545356522	0.48556073281067225	-0.02678046345828544	-0.11939314654333327	0.47723187616589813	-0.029183633477770088	-0.07563534814295383	0.5934306702262262	0.008149306725604433	-0.12403283076132676	0.5768443772491085	0.015412049579047848	-0.12364883659213884	0.552662227585432	0.021993825183045712	-0.12167052909779556	0.5130360784819417	0.011171614041264433	-0.11043290714158722	0.6066956116197637	0.016069743536240688	-0.10171170809331671	0.5894521105599697	0.02156718552410719	-0.10237488438279262	0.5611203370486482	0.028348297788376886	-0.10151658597165653	0.5181000767998091	0.020914080077851893	-0.09202250696657853	0.6011844138561984	0.020673456068709517	-0.08051975394955657	0.58500589609542	0.028539431374874358	-0.07934417088273835	0.5613077899198606	0.036142545893918965	-0.07846531236044686	0.5228259760467511	0.024684423416950874	-0.07371323235920951	0.593139721002926	0.016103848165961	-0.05920396663958266	0.5781308918487635	0.024173062586207772	-0.05758445249600641	0.5577277462405642	0.029061943716217176	-0.056795459728452846	0.5234155603830659	0.01842457064905867	-0.053569991249210386	0.4622830810018608	-0.023011742144276925	-0.051989820119431
43	1.4666666666666603	0.511344867411615	-0.01812868476744056	-0.16304374644687	0.5082005370411774	-0.021645861287184154	-0.14055502358738975	0.4863604980655787	-0.027098275760700563	-0.11905842213615282	0.4774831242898363	-0.029441501142121185	-0.07540534057645504	0.5960004942367502	0.01779491060129934	-0.12618803771754722	0.5783280827638276	0.02145942688950908	-0.12468564192909368	0.5535226794101712	0.023661517717196823	-0.12124288236022714	0.5151058911340615	0.00947240717168929	-0.10956146059419522	0.6093967319304517	0.026738619871327307	-0.10311603867490111	0.5913857179989717	0.02863453685662365	-0.10302182644163366	0.5623625366798154	0.030246053329125333	-0.10090817775411831	0.5202860861518055	0.018867761631363944	-0.09109722927781928	0.6041491725102816	0.03072651118565284	-0.0811866071644344	0.5866412612968992	0.03469816222630784	-0.07954373378051663	0.5619610897428774	0.037575406749048024	-0.07787323235267764	0.5248003231546872	0.02242112964169818	-0.07295935954889951	0.5951070709994691	0.02559018811819347	-0.058066693454041474	0.5786461039463264	0.030048754480951678	-0.05659776538765157	0.5576838316909554	0.030881132574083425	-0.05575972743995486	0.5247658347240153	0.016373654877303245	-0.05314782821487926	0.462283081001861	-0.023011742144276925	-0.051989820119430985
44	1.4999999999999936	0.5122253587110971	-0.018705009118243132	-0.1626448402397461	0.5090296198763401	-0.022349984552979762	-0.14018373146524005	0.4870410479532361	-0.02746175593227318	-0.11875495412848297	0.4777105042332823	-0.029677008139105454	-0.07518978901287526	0.5968924827140096	0.025754608533715917	-0.12727523919211103	0.5789318047677969	0.02621861241087098	-0.12499516285250849	0.5542345308464067	0.02463076522790353	-0.12057552087884627	0.5169006165663443	0.007901106978714156	-0.10874617290889049	0.6101695052744961	0.0354989908422606	-0.10374231262429545	0.5921114730475495	0.0343097461676557	-0.10304005256243755	0.5632570085227259	0.03148619482354875	-0.1000639838816275	0.522158048231599	0.016964118064646594	-0.09025925692995132	0.6050320540539115	0.03903279965796247	-0.08144253456500858	0.5871260331030294	0.039571414634007374	-0.07942156756523963	0.5623565804630366	0.03831732222381867	-0.07716736102149473	0.5264612368441062	0.0203569081507472	-0.0723023156154649	0.5952373552851589	0.033489546540942494	-0.05676245478334718	0.5782094151766546	0.034655506762964805	-0.05546253462354789	0.5573979310037531	0.03198942384496273	-0.05469693198809983	0.5258751599058152	0.014565332663095232	-0.05279972356702786	0.462283081001861	-0.023011742144276925	-0.051989820119430985
45	1.5333333333333266	0.5127402715578536	-0.019293699278172594	-0.1624046080816514	0.5095715372846514	-0.023019808033487577	-0.13995298817017507	0.48754290194760197	-0.027839816767626036	-0.11849776174419382	0.4779194144236317	-0.029885937116170935	-0.07498808604561776	0.5967562231221115	0.03208820627149078	-0.12754547137029298	0.5790076093843246	0.029777468751574276	-0.12478011379831574	0.5548043829684011	0.025102077885960417	-0.11984509765717925	0.518305967849473	0.0065825542788529035	-0.1080752619245873	0.6097162355680941	0.042563428868115816	-0.10370578292828388	0.5920616803406795	0.03868547251480747	-0.10257523693452525	0.5638336017772533	0.03228470732618016	-0.09916710905882968	0.523603627228276	0.015370458818248944	-0.08959604505316192	0.6046170571749384	0.045735917688831895	-0.08132506143672676	0.5869048214790091	0.04328129622143406	-0.07903343753572586	0.5625799871696091	0.03862898561106343	-0.07641840009720374	0.5277069231546567	0.01869893237480791	-0.07179420090068833	0.5942991440635761	0.03983721045013411	-0.05534627828852179	0.5773065997632776	0.03810628258523974	-0.05422497238515489	0.557058330833342	0.03258570558484786	-0.05363943509022823	0.5266807972456999	0.013172138204662898	-0.0525429380739538	0.4622830810018609	-0.023011742144276925	-0.051989820119430985
